<svg width="25" height="25" viewBox="0 0 25 25" fill="none" xmlns="http://www.w3.org/2000/svg">
<path d="M2.42265 0.25H21.6019C22.8019 0.25 23.7746 1.22273 23.7746 2.42265V21.8684C23.7746 23.0684 22.8019 24.0411 21.6019 24.0411H2.42265C1.22273 24.0411 0.25 23.0684 0.25 21.8684V2.42265C0.25 1.22273 1.22273 0.25 2.42265 0.25Z" fill="white" stroke="#2997E7" stroke-width="0.5"/>
<path d="M2.42265 0H21.6019C22.9425 0 24.0246 1.08212 24.0246 2.42265V5.52364H0V2.42265C0 1.08212 1.08212 0 2.42265 0Z" fill="#2997E7"/>
<path d="M6.67636 11.8777C6.70116 11.2141 6.91823 10.7024 7.32756 10.3427C7.73689 9.98298 8.29197 9.80312 8.9928 9.80312C9.45794 9.80312 9.85487 9.88375 10.1836 10.045C10.5185 10.2063 10.7697 10.4264 10.9371 10.7055C11.1108 10.9846 11.1976 11.2978 11.1976 11.6451C11.1976 12.0544 11.0953 12.3893 10.8906 12.6498C10.6859 12.9041 10.4472 13.0778 10.1743 13.1708V13.208C10.5278 13.3258 10.8069 13.5212 11.0115 13.7941C11.2162 14.067 11.3185 14.4174 11.3185 14.8453C11.3185 15.2299 11.2286 15.571 11.0488 15.8687C10.8751 16.1602 10.6177 16.3896 10.2766 16.5571C9.9417 16.7245 9.54167 16.8083 9.07652 16.8083C8.33228 16.8083 7.73689 16.6253 7.29035 16.2594C6.85001 15.8935 6.61744 15.3415 6.59263 14.6035H8.13692C8.14312 14.8763 8.22065 15.0934 8.3695 15.2547C8.51834 15.4097 8.73541 15.4872 9.0207 15.4872C9.26258 15.4872 9.44864 15.419 9.57888 15.2826C9.71533 15.1399 9.78355 14.9539 9.78355 14.7244C9.78355 14.4267 9.68742 14.2127 9.49516 14.0825C9.3091 13.946 9.0083 13.8778 8.59277 13.8778H8.29507V12.5847H8.59277C8.90907 12.5847 9.16335 12.532 9.35561 12.4266C9.55407 12.3149 9.65331 12.1196 9.65331 11.8405C9.65331 11.6172 9.59129 11.4435 9.46725 11.3195C9.34321 11.1955 9.17265 11.1334 8.95558 11.1334C8.71991 11.1334 8.54315 11.2048 8.42531 11.3474C8.31368 11.4901 8.24856 11.6668 8.22995 11.8777H6.67636ZM12.4393 13.2638C12.4393 12.1971 12.6439 11.3567 13.0533 10.7427C13.4688 10.1287 14.1355 9.82173 15.0534 9.82173C15.9713 9.82173 16.6349 10.1287 17.0442 10.7427C17.4598 11.3567 17.6675 12.1971 17.6675 13.2638C17.6675 14.343 17.4598 15.1895 17.0442 15.8035C16.6349 16.4175 15.9713 16.7245 15.0534 16.7245C14.1355 16.7245 13.4688 16.4175 13.0533 15.8035C12.6439 15.1895 12.4393 14.343 12.4393 13.2638ZM16.1046 13.2638C16.1046 12.6374 16.0364 12.1568 15.9 11.8219C15.7635 11.4808 15.4813 11.3102 15.0534 11.3102C14.6255 11.3102 14.3433 11.4808 14.2068 11.8219C14.0704 12.1568 14.0022 12.6374 14.0022 13.2638C14.0022 13.6856 14.027 14.036 14.0766 14.3151C14.1262 14.588 14.2254 14.8112 14.3743 14.9849C14.5293 15.1523 14.7557 15.2361 15.0534 15.2361C15.3511 15.2361 15.5744 15.1523 15.7232 14.9849C15.8783 14.8112 15.9806 14.588 16.0302 14.3151C16.0798 14.036 16.1046 13.6856 16.1046 13.2638Z" fill="#2997E7"/>
<g clip-path="url(#clip0_845_9231)">
<path d="M5.63661 6.42801C6.07369 6.42801 6.42801 6.07369 6.42801 5.63661C6.42801 5.19954 6.07369 4.84521 5.63661 4.84521C5.19954 4.84521 4.84521 5.19954 4.84521 5.63661C4.84521 6.07369 5.19954 6.42801 5.63661 6.42801Z" fill="white"/>
<path d="M17.8226 6.42801C18.2597 6.42801 18.614 6.07369 18.614 5.63661C18.614 5.19954 18.2597 4.84521 17.8226 4.84521C17.3856 4.84521 17.0312 5.19954 17.0312 5.63661C17.0312 6.07369 17.3856 6.42801 17.8226 6.42801Z" fill="white"/>
</g>
<path d="M5.10019 20.5723H5.37928V19.5706C5.37928 19.0838 5.07849 18.8419 4.68466 18.8419C4.45519 18.8419 4.25052 18.938 4.13889 19.1148V18.8729H3.8567V20.5723H4.13889V19.6327C4.13889 19.2667 4.33735 19.0869 4.62574 19.0869C4.91103 19.0869 5.10019 19.2636 5.10019 19.611V20.5723ZM7.51477 19.7195C7.51477 19.183 7.13955 18.845 6.6558 18.845C6.17515 18.845 5.79683 19.183 5.79683 19.7195C5.79683 20.2591 6.16274 20.6002 6.6434 20.6002C7.12715 20.6002 7.51477 20.2591 7.51477 19.7195ZM6.08522 19.7195C6.08522 19.2916 6.355 19.09 6.6527 19.09C6.94419 19.09 7.22638 19.2916 7.22638 19.7195C7.22638 20.1505 6.93799 20.3521 6.6434 20.3521C6.3488 20.3521 6.08522 20.1505 6.08522 19.7195ZM7.94782 20.5723H8.23001V18.8729H7.94782V20.5723ZM8.09357 18.5969C8.1959 18.5969 8.27963 18.5132 8.27963 18.4047C8.27963 18.2961 8.1959 18.2124 8.09357 18.2124C7.98503 18.2124 7.90131 18.2961 7.90131 18.4047C7.90131 18.5132 7.98503 18.5969 8.09357 18.5969ZM9.49551 19.0838C9.787 19.0838 10.0351 19.2667 10.032 19.5986H8.95904C8.99005 19.2667 9.21952 19.0838 9.49551 19.0838ZM10.2894 20.0482H9.98546C9.92344 20.2312 9.76219 20.3614 9.50791 20.3614C9.21952 20.3614 8.97764 20.1722 8.95594 19.828H10.3142C10.3204 19.7691 10.3235 19.7195 10.3235 19.6575C10.3235 19.1923 10.001 18.845 9.50791 18.845C9.01175 18.845 8.66754 19.183 8.66754 19.7195C8.66754 20.2591 9.02416 20.6002 9.50791 20.6002C9.92965 20.6002 10.2025 20.3583 10.2894 20.0482ZM13.2109 20.5723H13.4899V19.5706C13.4899 19.0838 13.1892 18.8419 12.8015 18.8419C12.541 18.8419 12.2992 18.9753 12.1999 19.2202C12.0883 18.966 11.8557 18.8419 11.5766 18.8419C11.3534 18.8419 11.1518 18.938 11.0402 19.1179V18.8729H10.758V20.5723H11.0402V19.6358C11.0402 19.2698 11.2355 19.0869 11.5208 19.0869C11.7999 19.0869 11.986 19.2636 11.986 19.611V20.5723H12.2651V19.6358C12.2651 19.2698 12.4604 19.0869 12.7457 19.0869C13.0248 19.0869 13.2109 19.2636 13.2109 19.611V20.5723ZM14.2971 19.1892V18.2775H14.0149V20.5723H14.2971V20.2591C14.4025 20.4451 14.6227 20.6002 14.9328 20.6002C15.3886 20.6002 15.739 20.2436 15.739 19.7164C15.739 19.1861 15.3917 18.845 14.9328 18.845C14.632 18.845 14.4056 19.0001 14.2971 19.1892ZM15.4506 19.7164C15.4506 20.1164 15.187 20.3521 14.8738 20.3521C14.5668 20.3521 14.2971 20.1195 14.2971 19.7195C14.2971 19.3257 14.5668 19.09 14.8738 19.09C15.187 19.09 15.4506 19.3164 15.4506 19.7164ZM16.4547 19.6482C16.4547 19.2543 16.6593 19.1334 16.9291 19.1334H17.0035V18.8419C16.7338 18.8419 16.5508 18.9598 16.4547 19.1489V18.8729H16.1725V20.5723H16.4547V19.6482ZM17.3913 20.5723H17.6735V18.8729H17.3913V20.5723ZM17.5371 18.5969C17.6394 18.5969 17.7231 18.5132 17.7231 18.4047C17.7231 18.2961 17.6394 18.2124 17.5371 18.2124C17.4285 18.2124 17.3448 18.2961 17.3448 18.4047C17.3448 18.5132 17.4285 18.5969 17.5371 18.5969ZM18.939 19.0838C19.2305 19.0838 19.4786 19.2667 19.4755 19.5986H18.4025C18.4335 19.2667 18.663 19.0838 18.939 19.0838ZM19.7328 20.0482H19.4289C19.3669 20.2312 19.2057 20.3614 18.9514 20.3614C18.663 20.3614 18.4211 20.1722 18.3994 19.828H19.7577C19.7639 19.7691 19.767 19.7195 19.767 19.6575C19.767 19.1923 19.4445 18.845 18.9514 18.845C18.4552 18.845 18.111 19.183 18.111 19.7195C18.111 20.2591 18.4676 20.6002 18.9514 20.6002C19.3731 20.6002 19.646 20.3583 19.7328 20.0482Z" fill="#2997E7"/>
<defs>
<clipPath id="clip0_845_9231">
<rect width="13.7687" height="1.5828" fill="white" transform="translate(4.84521 4.84521)"/>
</clipPath>
</defs>
</svg>
